<?xml version="1.0" encoding="utf-8"?>
<!-- Generator: Adobe Illustrator 19.2.1, SVG Export Plug-In . SVG Version: 6.00 Build 0)  -->
<svg version="1.1" id="Layer_1" xmlns="http://www.w3.org/2000/svg" xmlns:xlink="http://www.w3.org/1999/xlink" x="0px" y="0px"
	 viewBox="0 0 54.1 54.1" style="enable-background:new 0 0 54.1 54.1;" xml:space="preserve">
<style type="text/css">
	.st0{fill:#515151;}
</style>
<g id="Picture">
	<path class="st0" d="M46.9,6.7H8.7c-0.9,0-1.6,0.7-1.6,1.6v37.6c0,0.9,0.7,1.6,1.6,1.6h38.1c0.9,0,1.6-0.7,1.6-1.6V8.3
		C48.4,7.4,47.7,6.7,46.9,6.7z M44,37.5H11.1V10.9H44V37.5z"/>
	<circle class="st0" cx="17.5" cy="17.7" r="4.6"/>
	<path class="st0" d="M33.8,20c-0.8-1.4-2.2-1.5-3.1-0.1l-4.3,6.9c-0.9,1.4-2.6,1.8-3.9,1c-1.3-0.9-3.2-0.5-4.2,0.7l-4.3,5.1
		c-1.1,1.3-0.6,2.3,1.1,2.3h24.6c1.6,0,2.3-1.2,1.5-2.6L33.8,20z"/>
</g>
</svg>
